<?xml version="1.0" encoding="iso-8859-1"?>
<!-- Generator: Adobe Illustrator 16.0.0, SVG Export Plug-In . SVG Version: 6.00 Build 0)  -->
<!DOCTYPE svg PUBLIC "-//W3C//DTD SVG 1.1//EN" "http://www.w3.org/Graphics/SVG/1.1/DTD/svg11.dtd">
<svg version="1.1" id="Capa_1" xmlns="http://www.w3.org/2000/svg" xmlns:xlink="http://www.w3.org/1999/xlink" x="0px" y="0px"
	 width="612.264px" height="612.264px" viewBox="0 0 612.264 612.264" style="enable-background:new 0 0 612.264 612.264;"
	 xml:space="preserve">
<g>
	<g>
		<g>
			<path d="M469.744,298.224h-38.55c-0.078,0-0.415,0.277-0.415,0.833v1.996h39.381v-1.996
				C470.161,298.504,469.814,298.224,469.744,298.224z"/>
			<path d="M478.169,309.023H248.172c-10.259,0-18.604,8.346-18.604,18.604v128.279c0,10.258,8.345,18.604,18.604,18.604h98.765
				c-29.169-12.998-49.562-42.248-49.562-76.192c0-45.976,37.405-83.379,83.379-83.379c45.979,0,83.386,37.403,83.386,83.379
				c0,33.942-20.396,63.192-49.566,76.192h63.596c10.259,0,18.604-8.346,18.604-18.604V327.627
				C496.772,317.369,488.428,309.023,478.169,309.023z"/>
			<path d="M488.55,60.306C435.381,20.853,372.383,0,306.367,0c-46.809,0-93.699,10.893-135.6,31.505
				c-43.926,21.605-81.09,52.626-110.458,92.202c-100.584,135.554-72.143,327.664,63.398,428.244
				c53.171,39.457,116.171,60.312,182.188,60.312c46.809,0,93.701-10.895,135.602-31.506
				c43.927-21.606,81.091-52.627,110.462-92.205C652.54,353.002,624.097,160.892,488.55,60.306z M504.741,455.906
				c0,14.649-11.92,26.572-26.572,26.572H248.172c-14.652,0-26.573-11.921-26.573-26.572v-51.851l-113.793,0.091l-0.287-273.968
				l380.372-0.396l0.116,173.181c9.792,3.921,16.734,13.487,16.734,24.663V455.906z"/>
			<path d="M250.34,294.171h31.241c3.935,0,7.14,3.036,7.484,6.882h133.747v-1.996c0-4.854,3.762-8.802,8.386-8.802h38.548
				c4.624,0,8.387,3.949,8.387,8.802v1.996h0.038c0.631,0,1.248,0.051,1.868,0.095l-0.108-163.389l-364.433,0.382l0.268,258.03
				l105.833-0.084v-68.461c0-12.813,9.118-23.538,21.207-26.027C242.87,297.494,246.22,294.171,250.34,294.171z"/>
			<path d="M380.753,352.648c-25.184,0-45.669,20.485-45.669,45.668c0,25.184,20.485,45.672,45.669,45.672
				c25.187,0,45.676-20.488,45.676-45.672C426.429,373.135,405.939,352.648,380.753,352.648z"/>
			<path d="M380.753,323.426c-41.296,0-74.893,33.599-74.893,74.892c0,41.299,33.597,74.897,74.893,74.897
				c41.3,0,74.896-33.6,74.896-74.897C455.65,357.023,422.053,323.426,380.753,323.426z M380.753,451.957
				c-29.577,0-53.638-24.063-53.638-53.641c0-29.574,24.062-53.638,53.638-53.638c29.58,0,53.645,24.063,53.645,53.638
				C434.397,427.895,410.333,451.957,380.753,451.957z"/>
		</g>
	</g>
</g>
<g>
</g>
<g>
</g>
<g>
</g>
<g>
</g>
<g>
</g>
<g>
</g>
<g>
</g>
<g>
</g>
<g>
</g>
<g>
</g>
<g>
</g>
<g>
</g>
<g>
</g>
<g>
</g>
<g>
</g>
</svg>
