<?xml version="1.0" encoding="iso-8859-1"?>
<!-- Generator: Adobe Illustrator 19.0.0, SVG Export Plug-In . SVG Version: 6.00 Build 0)  -->
<svg version="1.1" id="Capa_1" xmlns="http://www.w3.org/2000/svg" xmlns:xlink="http://www.w3.org/1999/xlink" x="0px" y="0px"
	 viewBox="0 0 512 512" style="enable-background:new 0 0 512 512;" xml:space="preserve">
<g>
	<g>
		<path d="M497.231,443.077H377.013c-6.446-22.702-27.35-39.385-52.09-39.385s-45.643,16.682-52.09,39.385H93.538v-58.277
			l119.337-39.778c9.713,14.58,26.297,24.21,45.093,24.21c29.86,0,54.154-24.293,54.154-54.154c0-1.044-0.037-2.078-0.095-3.107
			l125.873-41.957C443.932,268,448,262.357,448,256v-70.987c22.702-6.446,39.385-27.35,39.385-52.09
			c0-29.86-24.293-54.154-54.154-54.154c-24.74,0-45.643,16.682-52.09,39.385H251.077V78.769h-73.846
			c-8.157,0-14.769-6.613-14.769-14.769s6.613-14.769,14.769-14.769h73.846V34.462C251.077,15.459,235.617,0,216.615,0H14.769
			C6.613,0,0,6.613,0,14.769v34.462h39.385c8.157,0,14.769,6.613,14.769,14.769s-6.613,14.769-14.769,14.769H0v54.154
			c0,8.157,6.613,14.769,14.769,14.769h13.178c5.541,11.632,17.41,19.692,31.13,19.692c13.72,0,25.588-8.06,31.13-19.692h55.895
			c5.541,11.632,17.41,19.692,31.13,19.692s25.588-8.06,31.13-19.692h172.78c5.112,18.004,19.317,32.208,37.321,37.321v60.342
			l-116.136,38.711c-9.802-13.979-26.024-23.143-44.356-23.143c-29.86,0-54.154,24.293-54.154,54.154
			c0,0.608,0.026,1.209,0.046,1.812L74.099,360.143C68.068,362.153,64,367.797,64,374.154v83.692
			c0,8.157,6.613,14.769,14.769,14.769h194.064c6.446,22.702,27.35,39.385,52.09,39.385s45.643-16.682,52.09-39.385h120.218
			c8.157,0,14.769-6.613,14.769-14.769S505.387,443.077,497.231,443.077z M128,78.769H88.615c-8.156,0-14.769-6.613-14.769-14.769
			s6.613-14.769,14.769-14.769H128c8.157,0,14.769,6.613,14.769,14.769S136.157,78.769,128,78.769z"/>
	</g>
</g>
<g>
</g>
<g>
</g>
<g>
</g>
<g>
</g>
<g>
</g>
<g>
</g>
<g>
</g>
<g>
</g>
<g>
</g>
<g>
</g>
<g>
</g>
<g>
</g>
<g>
</g>
<g>
</g>
<g>
</g>
</svg>
