<?xml version="1.0" standalone="no"?>
<!DOCTYPE svg PUBLIC "-//W3C//DTD SVG 20010904//EN"
 "http://www.w3.org/TR/2001/REC-SVG-20010904/DTD/svg10.dtd">
<svg version="1.0" xmlns="http://www.w3.org/2000/svg"
 width="600.000000pt" height="600.000000pt" viewBox="0 0 600.000000 600.000000"
 preserveAspectRatio="xMidYMid meet">
<metadata>
Created by potrace 1.15, written by Peter Selinger 2001-2017
</metadata>
<g transform="translate(0.000000,600.000000) scale(0.100000,-0.100000)"
fill="#000000" stroke="none">
<path d="M2571 5985 c-191 -42 -321 -164 -385 -360 -55 -171 -58 -202 -66
-705 -4 -261 -11 -501 -15 -532 -10 -73 5 -76 33 -8 58 140 144 521 227 1009
32 184 97 294 287 484 l128 127 -72 -1 c-40 0 -102 -7 -137 -14z"/>
<path d="M2854 5952 c-114 -40 -210 -142 -289 -307 -82 -171 -141 -391 -224
-825 -66 -345 -86 -415 -151 -547 -93 -189 -252 -421 -580 -843 -333 -430
-443 -585 -504 -708 -173 -349 -158 -855 44 -1493 21 -68 38 -125 36 -126 -1
-1 -34 52 -74 120 -153 262 -255 510 -303 737 -33 153 -32 396 0 530 81 332
277 594 624 838 212 148 356 356 456 659 78 234 123 494 166 963 56 614 91
797 181 945 19 32 32 60 30 62 -7 7 -108 -14 -146 -31 -64 -27 -155 -102 -209
-172 -122 -162 -225 -422 -361 -917 -80 -291 -121 -419 -157 -492 -32 -64
-102 -164 -273 -390 -163 -216 -276 -382 -360 -530 -280 -485 -363 -935 -251
-1355 40 -148 151 -420 262 -642 377 -753 882 -1237 1443 -1382 114 -30 238
-48 295 -44 l44 3 -75 58 c-105 80 -272 256 -341 359 -335 500 -380 1171 -124
1833 84 219 212 432 376 630 51 61 115 144 143 185 28 41 55 79 59 84 5 5 -22
-51 -60 -125 -131 -260 -184 -451 -184 -669 1 -104 5 -152 21 -211 22 -81 83
-210 127 -269 57 -77 221 -230 245 -230 5 0 -16 35 -46 77 -147 205 -219 376
-244 584 -27 228 51 496 212 724 86 123 261 296 378 375 215 145 331 298 408
540 98 308 111 638 52 1275 -21 219 -26 421 -11 443 6 10 15 7 39 -13 66 -56
109 -160 173 -425 50 -210 71 -274 127 -385 55 -111 123 -217 230 -358 49 -64
82 -117 82 -131 0 -27 -71 -97 -125 -123 -19 -9 -35 -20 -35 -23 0 -4 12 -17
26 -31 38 -35 84 -105 84 -126 0 -19 -43 -66 -88 -95 -23 -15 -23 -16 25 -39
68 -34 68 -55 -3 -129 l-56 -59 16 -42 c58 -145 28 -240 -88 -274 -66 -20
-241 -19 -370 1 -55 9 -125 14 -155 12 -53 -5 -57 -8 -121 -75 -233 -244 -370
-642 -370 -1075 0 -252 30 -391 130 -593 344 -698 897 -1065 1608 -1065 112 0
105 6 -137 125 -204 100 -270 156 -328 281 -26 55 -28 67 -28 194 0 117 4 149
28 235 77 278 240 600 539 1065 130 203 158 268 179 426 15 114 6 313 -20 464
-58 334 -193 711 -411 1148 -69 138 -125 252 -124 252 6 0 187 -274 242 -366
72 -119 196 -364 245 -484 124 -302 180 -547 180 -800 1 -254 -23 -334 -239
-811 -266 -588 -346 -815 -360 -1034 -15 -208 84 -394 253 -477 63 -31 74 -33
168 -33 93 0 105 2 165 32 167 82 264 259 276 498 l5 100 -20 -36 c-31 -56
-112 -123 -171 -142 -140 -45 -292 0 -341 100 -20 41 -21 50 -10 96 23 101
108 198 296 337 316 234 510 536 569 883 22 128 22 366 1 512 -53 362 -207
767 -480 1260 -228 413 -497 731 -870 1030 -249 200 -569 367 -731 382 -83 8
-128 -2 -168 -38 -96 -84 -134 -282 -181 -939 -37 -521 -65 -737 -120 -947
-45 -171 -82 -248 -203 -428 -63 -93 -119 -174 -124 -180 -5 -5 15 40 45 100
120 241 211 544 261 865 14 91 41 329 61 530 60 624 89 769 216 1077 17 42 7
50 -35 30 -154 -73 -436 -774 -515 -1279 -11 -68 -22 -163 -26 -213 -13 -186
-61 -357 -142 -504 -45 -84 -101 -161 -213 -296 -93 -111 -349 -488 -453 -666
-126 -215 -244 -486 -297 -679 -165 -609 -56 -1209 325 -1785 44 -66 84 -127
89 -135 7 -11 2 -10 -20 4 -193 123 -342 328 -437 602 -168 485 -139 1106 78
1661 94 238 212 443 412 710 209 281 330 490 432 753 83 210 122 352 205 733
25 114 57 253 71 308 73 285 182 527 330 731 25 34 45 65 45 69 0 12 -97 29
-163 29 -34 -1 -85 -9 -113 -18z"/>
<path d="M1759 5714 c-379 -288 -629 -536 -836 -832 -126 -179 -191 -306 -269
-519 -111 -305 -219 -849 -243 -1226 -9 -140 -2 -184 18 -116 29 99 128 342
188 464 110 221 194 335 399 546 252 257 257 265 385 663 127 392 246 672 415
977 36 66 64 122 62 125 -3 2 -56 -35 -119 -82z"/>
</g>
</svg>
