<?xml version="1.0" standalone="no"?>
<!DOCTYPE svg PUBLIC "-//W3C//DTD SVG 20010904//EN"
 "http://www.w3.org/TR/2001/REC-SVG-20010904/DTD/svg10.dtd">
<svg version="1.0" xmlns="http://www.w3.org/2000/svg"
 width="2400.000000pt" height="2400.000000pt" viewBox="0 0 2400.000000 2400.000000"
 preserveAspectRatio="xMidYMid meet">
<metadata>
Created by potrace 1.15, written by Peter Selinger 2001-2017
</metadata>
<g transform="translate(0.000000,2400.000000) scale(0.100000,-0.100000)"
fill="#00808090" stroke="green">
 <path d="M11415 23989 c-2167 -109 -4216 -776 -6010 -1957 -526 -346 -999
-712 -1475 -1141 -149 -135 -686 -672 -821 -821 -720 -799 -1313 -1655 -1795
-2595 -678 -1322 -1103 -2757 -1254 -4238 -47 -461 -54 -637 -54 -1237 0 -601
7 -778 55 -1240 180 -1758 750 -3461 1660 -4966 392 -649 865 -1284 1388
-1864 135 -149 672 -686 821 -821 1255 -1132 2688 -1971 4272 -2500 1483 -495
3093 -693 4693 -579 2478 178 4874 1147 6785 2742 315 263 463 400 806 742
619 620 1046 1140 1519 1851 1097 1650 1759 3524 1944 5505 40 423 46 575 46
1130 0 553 -6 688 -46 1125 -180 1972 -846 3859 -1944 5510 -473 711 -900
1231 -1519 1851 -619 619 -1139 1045 -1851 1519 -1695 1127 -3658 1804 -5680
1960 -459 35 -1118 45 -1540 24z m1125 -1439 c1189 -66 2292 -307 3370 -737
1849 -738 3478 -2010 4652 -3633 1197 -1656 1881 -3596 1988 -5645 13 -246 13
-826 0 -1075 -91 -1730 -593 -3383 -1475 -4860 -903 -1510 -2165 -2772 -3675
-3675 -1476 -882 -3130 -1384 -4860 -1475 -251 -13 -829 -13 -1080 0 -771 41
-1548 166 -2275 368 -2616 727 -4859 2440 -6260 4782 -881 1475 -1384 3130
-1475 4860 -13 251 -13 829 0 1080 121 2291 967 4452 2435 6215 396 475 885
964 1360 1360 1758 1463 3901 2306 6190 2434 206 12 903 12 1105 1z"/> 
<path d="M9493 20145 c-70 -19 -45 -5 -708 -388 -511 -294 -588 -342 -645
-398 -71 -69 -119 -154 -140 -248 -19 -81 -9 -222 21 -296 24 -57 2140 -3732
2202 -3824 70 -102 173 -174 297 -206 91 -24 224 -17 306 17 34 14 326 177
650 364 667 385 686 398 754 538 65 132 74 254 29 391 -12 37 -434 780 -1112
1955 -1008 1747 -1099 1900 -1158 1960 -99 101 -222 151 -369 149 -41 0 -99
-7 -127 -14z"/>
<path d="M7460 18552 c-549 -328 -842 -553 -1076 -825 -293 -341 -451 -712
-515 -1212 -20 -153 -17 -722 5 -965 121 -1347 569 -2848 1343 -4500 1314
-2802 3313 -5372 5123 -6586 539 -362 903 -525 1335 -601 145 -25 519 -25 668
0 329 56 609 152 992 342 243 120 535 282 535 296 0 6 -511 896 -1136 1978
l-1137 1969 -111 -54 c-339 -162 -671 -192 -1052 -94 -720 185 -1475 825
-2119 1795 -563 849 -928 1771 -1051 2655 -25 179 -30 603 -10 768 41 339 143
622 303 843 72 101 237 260 331 319 39 25 71 50 71 56 1 16 -2263 3937 -2275
3941 -5 2 -106 -55 -224 -125z"/>
<path d="M15365 9996 c-27 -7 -62 -18 -77 -24 -30 -12 -1109 -634 -1205 -694
-109 -69 -185 -176 -219 -311 -23 -88 -15 -222 18 -302 22 -56 2117 -3694
2194 -3813 74 -112 195 -196 321 -223 80 -16 214 -7 286 21 68 26 1229 693
1282 738 52 43 120 137 144 200 49 127 49 281 1 390 -11 24 -509 893 -1107
1930 -960 1663 -1095 1893 -1148 1947 -124 129 -319 184 -490 141z"/>
</g>
</svg>
