<?xml version="1.0" standalone="no"?>
<!DOCTYPE svg PUBLIC "-//W3C//DTD SVG 20010904//EN"
 "http://www.w3.org/TR/2001/REC-SVG-20010904/DTD/svg10.dtd">
<svg version="1.0" xmlns="http://www.w3.org/2000/svg"
 width="300.000000pt" height="300.000000pt" viewBox="0 0 300.000000 300.000000"
 preserveAspectRatio="xMidYMid meet">
<metadata>
Created by potrace 1.10, written by Peter Selinger 2001-2011
</metadata>
<g transform="translate(0.000000,300.000000) scale(0.050000,-0.050000)"
fill="#000000" stroke="none">
<path d="M2913 5317 c-18 -11 -33 -28 -33 -39 0 -11 10 -14 23 -6 14 8 18 5
10 -7 -7 -12 -31 -16 -54 -11 -22 6 -38 3 -35 -7 3 -10 -14 -40 -39 -66 -25
-27 -45 -54 -45 -61 0 -24 -105 -70 -143 -64 -33 6 -41 -6 -35 -49 3 -23 -51
-46 -112 -48 -52 -2 -54 -4 -20 -19 36 -15 34 -17 -14 -19 -57 -1 -136 -89
-136 -150 0 -49 -225 -39 -284 13 -28 24 -57 32 -84 23 -46 -15 -106 -17 -151
-5 -17 5 -30 -6 -30 -26 -1 -19 -19 -48 -41 -65 -27 -21 -30 -27 -8 -20 20 7
38 -2 46 -22 9 -24 4 -30 -17 -22 -55 21 -52 -23 4 -67 30 -24 42 -36 27 -28
-21 11 -25 6 -15 -20 7 -20 13 -39 13 -44 0 -4 14 -8 31 -8 17 0 25 -10 18
-21 -7 -12 -26 -17 -42 -11 -17 7 -24 3 -16 -10 7 -11 26 -16 41 -10 15 6 28
3 28 -7 0 -10 -16 -22 -35 -27 -25 -7 -21 -10 12 -12 40 -2 44 -7 23 -32 -20
-24 -20 -30 3 -30 20 0 27 -31 26 -120 -1 -90 6 -120 27 -120 17 0 24 -12 17
-29 -6 -17 4 -39 23 -50 19 -11 24 -20 12 -20 -12 -1 -22 -12 -23 -26 -1 -14
-8 -45 -16 -70 -13 -43 34 -69 56 -30 5 8 6 4 3 -9 -4 -14 3 -30 13 -37 11 -6
14 -20 8 -30 -6 -11 -1 -19 12 -19 13 0 18 -13 12 -29 -17 -46 281 -66 387
-26 64 25 162 34 150 15 -7 -11 -32 -21 -56 -22 -35 -2 -37 -4 -8 -12 20 -5
62 0 95 11 36 13 59 14 59 2 0 -10 9 -19 20 -19 11 0 20 14 20 30 0 21 20 30
65 30 42 -1 56 -6 39 -17 -16 -10 8 -16 62 -15 76 2 84 6 56 29 -28 23 -27 25
8 11 22 -8 99 -17 170 -20 72 -2 189 -18 260 -34 l130 -29 -110 -5 c-60 -3
-87 -9 -60 -14 28 -5 59 -19 70 -30 14 -15 6 -18 -25 -11 -29 7 -40 4 -32 -10
8 -13 2 -17 -16 -10 -21 7 -29 -2 -28 -31 1 -35 -12 -42 -78 -45 -91 -3 -158
41 -109 73 23 14 21 17 -7 18 -19 0 -35 -13 -35 -30 0 -16 -14 -30 -31 -30
-17 0 -26 -9 -19 -20 7 -11 -6 -20 -28 -20 -22 0 -46 -10 -53 -21 -7 -12 -25
-17 -40 -11 -18 7 -23 0 -15 -22 10 -26 5 -30 -26 -16 -66 29 -182 35 -226 11
-24 -13 -42 -14 -42 -3 0 10 11 22 25 27 14 5 -6 9 -45 10 -51 1 -59 -3 -31
-14 37 -14 37 -15 -5 -26 -24 -6 -44 -3 -44 7 0 10 -10 18 -21 18 -12 0 -15
-10 -7 -23 9 -16 5 -18 -13 -7 -32 20 -165 25 -179 7 -5 -7 -46 -5 -90 4 l-80
17 75 -5 c48 -3 68 2 56 14 -29 29 -138 24 -167 -7 -19 -21 -18 -23 6 -9 26
14 26 12 3 -17 -15 -18 -36 -28 -47 -22 -10 7 -37 -5 -60 -25 -41 -36 -41 -36
-27 8 11 37 8 42 -21 31 -25 -9 -30 -6 -18 14 13 21 -2 24 -72 13 l-88 -12 60
29 60 28 -55 -11 c-43 -9 -55 -4 -55 22 0 27 -12 32 -55 22 -143 -31 -164 -32
-154 -5 15 39 -78 82 -143 65 -46 -11 -51 -9 -31 15 32 39 -24 62 -78 33 -23
-12 -39 -13 -39 -2 0 34 -272 111 -309 87 -12 -7 -39 -16 -61 -19 -22 -3 -43
-15 -47 -26 -3 -10 -28 -19 -55 -19 -28 0 -48 -12 -48 -28 0 -15 -24 -34 -54
-41 -42 -11 -48 -18 -25 -32 24 -16 24 -22 2 -36 -14 -10 -26 -23 -25 -30 0
-7 -7 -33 -17 -58 -17 -42 -19 -42 -21 -5 -3 29 -8 24 -21 -19 -13 -42 -11
-64 7 -75 18 -12 18 -15 -2 -16 -15 0 -21 -9 -14 -20 7 -11 -14 -26 -48 -33
-34 -6 -56 -20 -50 -30 6 -9 -6 -23 -26 -31 -71 -27 -92 -69 -98 -192 -3 -68
-13 -126 -24 -129 -22 -8 -6 -105 18 -105 9 0 11 -14 5 -31 -7 -17 -4 -28 6
-25 9 3 37 -14 62 -39 25 -25 40 -45 34 -45 -7 0 3 -15 21 -33 27 -27 28 -36
6 -50 -21 -14 -20 -21 4 -37 31 -20 17 -27 -50 -21 -34 2 -35 -1 -10 -20 23
-17 24 -25 5 -32 -14 -6 -19 -20 -12 -32 8 -14 2 -17 -17 -10 -27 10 -31 -13
-27 -172 3 -170 7 -183 45 -182 26 1 53 -21 74 -61 46 -84 505 -210 767 -210
4 0 1 11 -7 23 -10 17 -3 19 24 8 58 -25 242 -38 282 -21 20 9 77 19 126 23
220 19 481 65 515 92 34 27 207 35 250 12 31 -16 35 -11 31 38 l-4 57 -261
-48 c-374 -70 -1147 -74 -1358 -9 -756 237 -315 664 687 665 441 0 915 -70
1760 -260 1208 -272 1660 -272 1660 0 0 167 -226 264 -668 288 l-199 11 -76
-80 c-139 -145 -404 -211 -486 -120 -89 98 72 200 344 219 l169 12 47 115 c75
185 77 211 10 112 -76 -114 -139 -157 -226 -157 -154 0 -154 108 -2 401 63
121 109 224 103 229 -5 6 -122 -7 -258 -30 -136 -22 -255 -40 -264 -40 -24 0
-74 -131 -74 -195 0 -141 140 -193 256 -95 107 90 134 230 45 230 -23 0 -41 9
-41 20 0 22 60 27 108 8 77 -30 19 -210 -95 -297 -193 -147 -426 58 -311 273
22 41 20 42 -105 29 -70 -7 -200 -19 -290 -26 -121 -9 -161 -19 -154 -38 6
-14 0 -45 -12 -67 -20 -38 -17 -42 38 -42 73 0 74 -3 11 -130 -83 -169 -43
-214 47 -53 25 46 55 78 65 72 26 -16 -94 -184 -142 -199 -87 -28 -110 75 -40
180 50 75 50 90 1 90 -27 0 -52 -31 -86 -105 -93 -203 -275 -253 -275 -77 l0
51 -33 -50 c-69 -103 -162 -134 -181 -60 -10 39 -11 39 -65 -2 -67 -49 -142
-42 -171 16 l-22 43 -44 -50 c-95 -106 -166 11 -85 142 50 82 51 92 4 92 -26
0 -48 -27 -71 -85 -49 -125 -101 -179 -166 -174 -31 3 -82 -2 -114 -11 -113
-31 -141 104 -48 235 l39 55 -79 0 c-77 0 -80 -3 -142 -129 -153 -311 -531
-400 -709 -166 -85 111 -49 370 52 377 14 0 43 4 65 8 34 6 33 2 -10 -27 -242
-163 -102 -445 209 -419 145 12 391 227 391 341 0 23 -117 18 -163 -7 -58 -30
-68 -9 -19 40 30 30 68 42 128 42 92 0 77 -17 209 242 9 17 -245 98 -307 98
-155 0 -315 -170 -235 -250 44 -44 124 -24 182 46 33 40 45 45 45 21 0 -56
-67 -118 -140 -129 -193 -31 -226 209 -46 327 83 54 269 45 412 -21 80 -36
134 -49 175 -41 37 8 59 4 59 -10 0 -13 -16 -24 -35 -24 -60 -3 122 -52 326
-89 213 -38 905 -34 1352 7 l213 20 88 88 c213 213 544 259 588 82 13 -49 19
-51 106 -40 744 95 1233 51 1458 -133 135 -109 100 -364 -69 -499 -24 -19 -62
-74 -85 -121 -65 -134 -162 -217 -268 -229 -170 -19 -166 122 6 208 162 82
222 76 70 -7 -136 -74 -177 -127 -134 -170 38 -38 257 130 267 205 3 27 8 44
26 84 9 20 11 60 5 89 -13 69 16 146 56 146 23 0 30 -24 30 -103 l0 -103 42
38 c223 202 94 473 -266 558 -276 65 -1236 20 -1236 -57 0 -14 -42 -106 -93
-204 -150 -287 -169 -389 -73 -389 92 0 236 192 305 405 26 82 82 103 80 30 0
-25 -39 -158 -85 -296 l-84 -252 163 -1 c462 -5 727 -122 727 -322 0 -332
-418 -345 -1727 -52 -1084 242 -1676 304 -2187 230 -700 -101 -746 -455 -74
-575 345 -61 1006 -29 1353 66 36 10 30 47 -7 47 -11 0 -15 -8 -9 -19 6 -10
-18 -18 -54 -18 -36 0 -107 -8 -159 -18 -55 -11 -90 -11 -83 0 6 10 -1 16 -16
14 -56 -8 -99 2 -88 19 6 10 -3 23 -19 29 -41 16 -38 53 3 53 19 0 28 6 21 12
-7 7 -37 7 -67 -1 -34 -9 -46 -19 -31 -28 36 -23 40 -114 4 -106 -16 4 -48 9
-70 12 -22 3 -62 11 -90 19 -37 11 -42 9 -21 -6 42 -28 13 -50 -33 -25 -24 12
-49 13 -67 2 -16 -10 -42 -18 -59 -17 -20 0 -17 7 10 20 29 13 16 16 -47 8
-53 -7 -99 -2 -115 12 -20 17 -28 17 -28 0 0 -12 -10 -22 -23 -22 -13 0 -18 5
-12 12 6 6 -6 29 -27 50 -39 39 -69 51 -49 20 6 -10 -11 -32 -36 -49 -45 -29
-49 -28 -74 18 -29 54 -53 63 -63 23 -4 -18 -22 -22 -56 -12 -49 14 -49 14 -4
16 28 1 41 11 33 23 -8 13 -43 17 -90 9 -43 -7 -93 -4 -113 8 -34 20 -34 21 4
23 29 2 32 5 10 14 -45 18 -88 65 -59 65 18 0 18 8 -1 30 -32 38 -17 55 49 55
28 0 51 8 51 18 0 9 17 7 37 -6 23 -14 53 -17 75 -7 21 9 44 15 52 13 8 -1 10
10 4 25 -9 22 21 27 151 25 133 -2 161 2 161 28 0 17 18 32 40 34 22 1 40 -4
40 -13 0 -9 24 -26 52 -39 45 -21 51 -20 41 6 -14 36 -11 37 56 11 28 -10 51
-11 51 -2 0 15 55 25 125 22 14 -1 90 -4 169 -8 80 -4 140 1 134 11 -6 9 4 17
21 17 18 0 39 -16 47 -35 11 -27 41 -36 132 -39 65 -2 124 -13 131 -24 7 -11
55 -17 107 -13 52 5 94 2 94 -6 0 -8 24 -16 54 -19 30 -2 59 -11 65 -19 6 -8
38 -16 71 -17 119 -5 170 -17 170 -40 0 -13 13 -29 29 -35 20 -8 25 -1 17 20
-10 27 -5 28 32 8 25 -13 71 -24 103 -25 33 -1 59 -10 59 -19 0 -9 7 -16 15
-15 36 6 53 -4 32 -18 -16 -10 -9 -22 23 -37 38 -17 45 -16 36 6 -6 15 -1 27
10 27 12 0 35 6 53 12 23 9 38 -5 53 -50 12 -34 31 -62 41 -62 11 0 6 -14 -11
-31 -19 -19 -42 -25 -57 -16 -28 18 -36 20 -100 26 -43 4 -43 5 -5 21 38 16
38 17 -5 19 -27 0 -45 -11 -45 -29 0 -16 -14 -30 -31 -30 -17 0 -26 -9 -19
-20 22 -36 -30 -21 -64 19 -25 30 -41 34 -70 19 -26 -14 -61 -13 -110 3 -64
21 -76 20 -99 -12 -15 -20 -59 -39 -102 -43 -55 -5 -67 -1 -45 13 20 14 22 20
5 21 -14 0 -24 7 -23 15 6 38 -8 39 -97 6 -61 -22 -93 -45 -88 -63 20 -82 17
-95 -19 -104 -51 -14 -33 -106 30 -161 23 -20 31 -31 17 -24 -14 8 -25 5 -25
-6 0 -10 13 -24 30 -30 16 -6 24 -24 19 -40 -6 -15 3 -33 20 -40 17 -6 31 -3
31 8 0 10 29 20 65 21 62 2 62 3 15 18 -47 15 -47 16 -6 18 55 3 148 -39 135
-60 -5 -8 8 -14 31 -13 22 2 40 10 40 17 0 27 103 32 128 7 33 -33 192 -64
161 -32 -11 13 -45 25 -75 27 -30 3 -54 13 -54 23 0 9 14 12 31 5 17 -6 47 -1
68 12 29 18 45 18 68 -1 17 -14 59 -29 95 -34 36 -4 75 -18 86 -31 17 -17 8
-20 -31 -11 -31 8 -57 4 -61 -8 -4 -12 -23 -24 -43 -26 -20 -3 -44 -19 -54
-34 -15 -24 -18 -23 -19 6 0 45 -75 47 -84 1 -6 -31 -8 -31 -40 0 -18 19 -45
34 -60 33 -15 0 -6 -17 21 -40 48 -39 43 -47 -22 -40 -25 3 -34 -9 -30 -43 4
-36 -6 -47 -45 -50 l-50 -4 50 17 c47 16 46 17 -20 20 -38 2 -105 7 -148 11
-52 4 -69 0 -50 -12 24 -15 23 -18 -2 -19 -39 -2 36 -36 84 -38 25 -1 31 9 22
32 -11 28 -6 27 26 -5 38 -38 38 -38 -52 -49 -82 -10 -85 -12 -30 -22 l60 -11
-56 -3 c-56 -3 -124 41 -100 65 7 6 -3 12 -22 12 -22 0 -29 9 -19 25 12 20 8
20 -16 0 -21 -17 -36 -18 -51 -3 -14 14 -29 12 -48 -7 -28 -28 -87 -25 -70 2
5 8 -31 16 -81 18 -106 5 -134 19 -118 58 8 21 1 26 -24 19 -19 -7 -61 2 -92
18 -32 17 -69 30 -84 30 -14 0 -29 11 -34 24 -4 13 -48 26 -98 28 -49 2 -118
18 -152 36 -82 42 -100 40 -115 -8 -7 -22 -20 -36 -28 -31 -17 10 -82 -60 -82
-89 0 -29 -40 -24 -41 5 -1 14 -11 3 -23 -25 -12 -27 -20 -70 -17 -95 2 -26
-3 -45 -13 -43 -41 7 -66 -4 -66 -31 0 -15 -14 -42 -31 -60 -19 -18 -27 -47
-20 -69 7 -21 3 -45 -9 -52 -15 -10 -13 -28 9 -61 17 -26 31 -72 31 -102 0
-29 6 -48 13 -41 7 8 24 4 38 -7 14 -11 32 -19 42 -17 40 7 68 -3 57 -21 -21
-34 122 -50 270 -29 84 11 87 14 50 41 -38 28 -36 29 20 17 47 -10 54 -8 30 9
-23 17 -7 20 70 12 82 -8 88 -7 33 7 -95 25 -112 51 -37 56 47 4 56 0 34 -14
-22 -14 -6 -19 56 -20 52 0 82 -8 74 -20 -7 -11 -3 -20 9 -20 11 0 21 9 21 20
0 11 19 20 42 20 27 0 39 -10 32 -27 -6 -14 2 -26 18 -26 15 0 28 8 28 19 0
11 49 13 120 6 77 -9 120 -6 120 7 0 27 74 28 83 2 4 -11 27 -15 52 -8 24 6
40 20 34 29 -6 10 3 18 20 18 17 0 31 9 31 20 0 11 10 20 21 20 12 0 16 -8 10
-18 -6 -10 -1 -22 12 -26 14 -5 34 -39 47 -76 12 -37 40 -77 61 -89 22 -11 44
-27 49 -34 10 -13 70 -23 118 -19 16 1 23 7 17 14 -12 12 21 58 101 141 25 26
41 56 34 67 -7 11 -3 20 9 20 11 0 21 -13 21 -30 0 -19 20 -31 55 -32 30 -1
84 -5 120 -8 36 -3 65 3 65 13 0 10 17 9 39 -2 21 -12 74 -21 118 -21 46 0 83
-11 88 -25 7 -20 15 -19 41 2 22 18 78 24 183 20 107 -5 149 0 143 16 -14 35
68 7 114 -39 l41 -41 18 49 c16 44 20 45 43 13 14 -19 33 -28 41 -20 8 8 13 6
10 -5 -9 -46 3 -70 36 -70 30 -1 31 -4 5 -22 -24 -17 -21 -20 15 -12 25 6 41
3 35 -6 -11 -18 37 -40 89 -40 19 0 56 18 81 40 25 22 53 40 61 40 8 0 50 36
93 79 53 53 86 73 99 60 14 -14 20 -10 20 10 0 17 -7 31 -15 31 -9 0 8 25 38
55 45 45 49 55 20 61 -20 4 -29 18 -23 35 8 19 2 26 -16 19 -19 -7 -28 3 -28
30 0 22 11 40 24 40 14 0 3 24 -25 54 -27 29 -44 66 -38 82 8 22 -2 26 -41 19
-39 -8 -49 -3 -40 19 14 38 -65 104 -124 105 -25 1 -45 10 -45 21 0 29 -105 0
-132 -36 -15 -20 -39 -26 -75 -17 -40 10 -53 6 -53 -17 0 -34 110 -43 130 -10
7 11 23 20 36 20 12 0 1 -15 -25 -34 -53 -37 -381 -58 -381 -24 0 10 -13 18
-30 18 -16 0 -30 14 -30 30 0 17 -10 30 -21 30 -12 0 -15 10 -8 21 7 12 1 19
-14 16 -15 -3 -55 10 -89 28 -35 18 -69 27 -77 20 -7 -8 -8 1 -1 18 9 23 -2
36 -38 45 -70 17 -107 86 -46 83 31 -1 43 11 43 39 0 22 14 52 30 66 27 22 24
24 -19 14 -37 -10 -43 -8 -21 8 25 17 22 28 -20 74 -27 30 -38 48 -24 40 14
-8 25 -10 25 -4 0 6 -29 26 -63 44 -87 44 -44 67 148 79 159 10 285 -22 285
-71 0 -33 21 -34 236 -13 90 8 132 6 124 -8 -7 -11 -23 -14 -34 -6 -13 8 -16
4 -8 -10 17 -27 72 -31 72 -5 0 10 55 15 122 11 135 -7 178 3 178 41 0 26 60
49 128 50 39 0 186 136 177 164 -3 9 3 16 14 16 10 0 15 41 11 90 -7 88 18
125 36 55 9 -33 9 -33 12 0 1 27 20 35 75 35 41 0 89 14 108 31 19 17 54 33
77 34 23 2 43 11 45 19 1 9 3 23 5 31 1 9 13 29 27 45 92 111 122 156 111 167
-7 7 4 13 24 13 20 0 32 5 25 11 -6 7 1 35 16 64 15 29 22 60 17 69 -6 9 9 16
32 16 24 0 37 9 30 20 -7 12 -21 15 -31 9 -11 -6 -19 -2 -19 10 0 11 10 21 21
21 49 0 79 61 79 159 0 56 -9 101 -21 101 -14 0 -14 12 -1 37 18 32 13 37 -30
32 -42 -5 -46 -1 -26 23 19 24 18 27 -9 16 -18 -7 -33 -3 -33 8 0 11 14 25 30
31 17 7 29 28 28 47 -1 21 -5 26 -11 11 -16 -39 -53 -29 -42 11 7 28 -1 36
-33 33 -23 -2 -40 -14 -37 -26 2 -12 -9 -16 -25 -10 -17 6 -30 20 -30 31 0 47
-51 72 -195 96 -47 7 -92 21 -100 29 -8 9 5 10 30 2 34 -10 42 -7 34 15 -13
34 -160 31 -194 -3 -13 -13 -37 -23 -54 -23 -27 1 -27 3 -1 20 17 11 21 20 10
21 -26 3 -66 11 -135 29 -48 13 -54 9 -44 -23 9 -27 4 -25 -15 7 -19 32 -34
39 -56 25 -39 -24 -65 -24 -50 1 7 11 3 20 -9 20 -12 0 -28 -14 -34 -31 -8
-20 -24 -26 -45 -17 -62 27 -244 42 -235 18 5 -14 -16 -19 -60 -13 -38 4 -82
-4 -101 -20 -20 -16 -28 -17 -19 -3 9 16 -8 25 -52 30 -46 4 -63 15 -58 36 9
34 17 92 21 150 2 34 6 35 24 10 18 -25 20 -23 9 8 -7 22 -1 47 13 57 21 14
21 20 1 28 -53 22 -2 217 51 197 14 -5 21 -1 14 10 -7 11 -28 21 -46 22 -21 1
-15 8 16 18 28 9 36 17 18 18 -45 3 -26 101 29 149 24 20 32 31 19 24 -37 -19
-28 146 9 167 20 11 27 35 21 68 -7 37 -1 55 22 61 24 6 21 9 -8 11 -33 2 -35
6 -10 22 25 16 23 19 -10 20 -33 1 -35 4 -10 20 36 24 -10 67 -54 51 -13 -5
-20 3 -14 17 15 40 -77 58 -104 22 -12 -17 -42 -30 -66 -30 -25 0 -39 -9 -32
-20 7 -11 3 -20 -9 -20 -11 0 -21 9 -21 20 0 11 -14 20 -31 20 -17 0 -26 -8
-20 -19 56 -90 -124 -49 -214 49 -36 38 -79 70 -98 70 -18 0 -37 18 -43 41 -6
22 -23 38 -37 35 -17 -4 -25 9 -21 34 4 31 1 33 -13 12 -11 -16 -33 -22 -53
-15 -27 10 -29 20 -12 41 26 31 -18 59 -65 40 -15 -5 -42 13 -62 43 -20 30
-46 48 -62 41 -16 -6 -26 0 -24 13 3 13 -5 24 -16 24 -12 1 -38 17 -57 36 -32
32 -27 44 14 37 9 -1 31 13 50 32 32 32 32 33 -6 18 -72 -27 -157 -39 -145
-20 15 25 -90 28 -132 5z m197 -272 c123 -183 119 -232 -20 -281 l-60 -21 60
-1 c71 -1 119 31 138 93 18 56 72 58 185 7 110 -51 120 -75 36 -88 -39 -7 -98
-35 -131 -63 -73 -61 -145 -65 -233 -11 -81 49 -82 30 -4 -78 130 -179 300
-212 444 -86 33 28 33 31 0 56 -33 24 -33 27 5 56 54 42 97 40 139 -7 38 -41
27 -81 -21 -81 -26 0 -25 -10 6 -62 64 -110 221 -185 298 -142 28 16 25 19
-19 19 -33 0 -74 23 -111 63 -32 34 -70 62 -85 63 -67 1 58 59 128 59 65 0 98
17 197 103 140 122 162 118 78 -17 -34 -54 -67 -134 -73 -177 -36 -236 -377
-200 -456 47 -11 37 -16 35 -73 -18 -150 -140 -341 -109 -458 75 -57 91 -84
92 -38 1 118 -228 402 -281 519 -97 12 18 25 24 30 13 87 -195 268 -284 401
-197 l50 33 -14 -58 c-7 -32 -16 -63 -20 -70 -4 -6 -90 4 -192 24 -462 90
-1168 90 -1632 0 -102 -20 -188 -30 -192 -24 -38 70 -31 124 12 94 107 -75
285 -12 366 130 l40 71 87 -67 c158 -121 355 -58 461 148 46 91 19 90 -38 -1
-117 -185 -314 -216 -458 -72 -57 57 -60 58 -72 18 -74 -233 -450 -291 -450
-70 0 37 -29 112 -70 180 -92 152 -77 160 68 34 99 -86 132 -103 197 -103 101
0 176 -48 108 -69 -24 -8 -58 -36 -76 -63 -23 -35 -50 -48 -104 -50 l-73 -1
56 -21 c84 -30 221 28 284 120 49 72 49 73 10 88 -62 23 -14 117 58 115 66 -1
117 -58 77 -87 -33 -25 -33 -28 0 -56 144 -126 314 -93 444 86 78 108 77 127
-4 78 -88 -54 -160 -50 -233 11 -33 28 -92 56 -131 63 -84 13 -74 37 36 88
113 51 167 49 185 -7 19 -62 67 -94 138 -93 l60 1 -60 21 c-84 30 -110 54
-110 104 0 47 170 312 200 312 11 0 60 -61 110 -135z m619 -867 c154 -22 284
-44 289 -49 25 -26 -25 -25 -149 1 -410 87 -1280 92 -1679 11 -235 -48 -210
-45 -210 -23 0 21 379 81 650 103 287 23 776 4 1099 -43z m-22 -49 c338 -53
346 -58 184 -109 l-78 -26 63 -56 c70 -63 85 -110 29 -89 -274 105 -1418 113
-1756 12 -94 -28 -1 -24 200 9 448 73 1514 34 1607 -60 26 -26 -19 -30 -108
-9 -440 100 -1256 100 -1696 0 -86 -20 -161 -10 -98 13 13 5 19 21 13 36 -6
15 19 54 55 86 l65 58 -78 26 c-164 52 -151 60 191 109 391 57 1043 57 1407 0z
m1206 -756 c8 -7 -10 -13 -38 -13 -29 0 -58 -8 -64 -19 -16 -25 62 -48 94 -27
55 35 150 58 187 45 21 -7 45 -4 53 9 10 15 20 16 30 1 8 -12 44 -33 79 -47
57 -23 61 -30 35 -55 -16 -16 -37 -25 -46 -19 -33 21 -172 30 -183 13 -20 -34
-180 -38 -180 -6 0 29 -130 23 -216 -10 -20 -8 -26 -4 -16 12 10 15 -1 21 -32
18 -28 -3 -44 5 -41 20 8 42 -15 28 -34 -20 -18 -45 -18 -45 -20 -2 0 23 -16
48 -34 55 -58 23 -10 39 137 46 79 4 148 11 153 16 12 13 120 -1 136 -17z
m-489 -28 c-20 -7 -20 -15 -3 -37 13 -15 32 -23 41 -17 10 6 18 2 18 -10 0
-40 -77 -21 -91 21 -13 41 26 91 50 64 6 -6 -1 -16 -15 -21z m1003 -70 c-9
-14 -1 -17 24 -7 21 8 32 8 24 1 -7 -8 0 -27 16 -43 16 -16 28 -48 28 -72 l-2
-44 -18 45 c-10 25 -23 45 -30 45 -8 0 -8 -14 -1 -31 7 -19 3 -26 -10 -18 -12
8 -17 31 -11 53 7 28 2 36 -18 28 -17 -6 -29 1 -29 19 0 16 -16 30 -35 30 -30
2 -29 4 5 18 47 19 76 7 57 -24z m-2385 -115 c10 0 18 -8 18 -18 0 -9 -38 -17
-85 -17 -47 1 -69 5 -50 9 19 5 35 18 35 30 0 11 14 15 32 8 17 -7 40 -12 50
-12z m2400 -33 c13 -15 17 -34 8 -42 -8 -8 -19 -4 -24 10 -28 76 -163 -16
-218 -148 -44 -104 -7 -133 72 -57 33 32 60 48 60 36 0 -25 -113 -126 -141
-126 -10 0 -29 17 -43 38 -23 38 -24 38 -73 0 -109 -85 -171 -18 -106 116 50
102 43 131 -17 76 -22 -20 -40 -30 -40 -23 0 20 163 133 193 133 19 0 9 -33
-33 -107 -115 -204 -62 -262 59 -63 108 180 231 244 303 157z m-1046 9 c39
-39 28 -125 -26 -204 -58 -85 -59 -92 -23 -92 41 0 90 64 154 198 44 93 67
122 100 122 23 0 39 -7 35 -15 -122 -245 -134 -275 -114 -294 27 -27 83 41
160 194 40 79 70 115 96 115 34 0 31 -15 -34 -140 -52 -102 -66 -146 -50 -162
35 -35 61 -6 137 143 53 106 80 139 112 139 40 0 40 -2 8 -51 -19 -29 -37 -68
-41 -88 -31 -160 -247 -280 -266 -148 -6 43 -6 43 -54 -5 -57 -56 -101 -61
-127 -14 -14 25 -26 29 -46 13 -30 -24 -213 -48 -252 -33 -14 5 -25 36 -25 70
0 164 173 335 256 252z m-3726 -36 c-6 -9 1 -21 15 -26 17 -6 9 -26 -25 -66
-27 -31 -36 -46 -18 -32 26 19 38 17 66 -14 33 -37 33 -39 -8 -52 -43 -14
-140 52 -140 95 0 29 54 74 71 59 8 -8 10 1 4 19 -7 18 -7 38 -1 45 17 16 49
-8 36 -28z m2420 -21 c31 -15 23 -17 -30 -9 l-70 10 69 -27 c38 -14 71 -37 73
-50 3 -13 0 -15 -5 -3 -12 23 -47 7 -47 -21 0 -11 20 -19 45 -19 37 -1 40 -4
15 -22 -24 -17 -21 -20 14 -12 45 10 97 -28 72 -53 -7 -7 2 -13 21 -13 18 0
33 -9 33 -20 0 -11 -11 -20 -25 -20 -17 -1 -15 -7 5 -20 17 -11 48 -19 70 -19
33 0 35 3 10 19 -25 16 -24 19 6 20 24 0 31 9 21 25 -10 18 -5 17 18 -2 18
-14 42 -21 52 -15 25 15 83 -6 83 -31 0 -10 -20 -14 -45 -10 -25 4 -34 3 -20
-1 43 -15 28 -47 -35 -73 -34 -14 -55 -32 -47 -39 8 -8 -2 -14 -21 -14 -19 0
-29 -8 -23 -18 6 -9 -16 -28 -49 -42 -64 -26 -84 -66 -25 -48 33 10 33 10 0
-12 -20 -12 -30 -33 -24 -46 7 -13 -2 -7 -20 15 -28 35 -41 29 -33 -15 2 -10
-7 -11 -18 -4 -15 10 -14 23 3 43 20 24 19 34 -4 49 -25 15 -25 21 1 38 21 13
22 19 4 20 -14 0 -30 -13 -36 -29 -6 -16 -24 -24 -40 -18 -40 16 -35 -27 7
-53 30 -20 29 -21 -12 -13 -26 6 -69 2 -96 -8 -32 -12 -45 -12 -37 1 7 11 25
20 41 20 16 0 29 8 29 19 0 10 -18 15 -40 11 -22 -4 -40 2 -40 13 0 12 -18 17
-40 11 -22 -6 -40 -3 -40 6 0 26 -84 34 -134 13 -33 -14 -52 -9 -80 18 -35 35
-35 36 7 25 32 -8 46 -1 54 28 6 24 24 36 46 32 27 -4 36 5 33 34 -3 22 0 29
6 15 6 -14 31 -24 55 -23 24 0 32 6 18 11 -14 6 -25 19 -25 29 0 24 87 23 112
-2 14 -14 33 -11 59 8 29 21 31 29 9 27 -109 -6 -151 6 -108 31 23 13 38 34
34 47 -4 13 1 29 12 36 12 7 9 31 -8 64 -49 94 25 139 140 86z m-2291 -75 c0
22 12 31 30 24 53 -21 10 -71 -57 -64 -34 3 -57 15 -52 26 6 11 17 18 25 15 8
-3 16 6 16 20 1 14 10 7 19 -15 14 -33 17 -34 19 -6z m1774 -269 c15 36 54 31
40 -5 -8 -21 2 -31 33 -32 25 -1 11 -10 -35 -21 -44 -10 -91 -14 -105 -8 -13
5 -30 1 -37 -10 -20 -32 -60 -21 -60 17 0 38 51 44 117 15 20 -9 41 -10 48 -3
7 6 -2 12 -21 12 -18 0 -33 16 -33 35 1 30 4 31 22 5 16 -23 24 -24 31 -5z
m1538 -221 c-6 13 -3 29 9 36 11 7 20 5 20 -5 0 -9 65 -18 145 -20 80 -2 168
-7 195 -12 28 -4 66 -9 86 -10 22 -2 31 -12 22 -26 -10 -16 0 -20 31 -11 62
16 115 -35 81 -77 -21 -24 -17 -29 23 -31 29 -1 36 -5 17 -12 -16 -6 -48 -26
-70 -44 -37 -30 -38 -30 -12 3 24 32 21 35 -36 35 -36 0 -62 -10 -62 -25 -1
-18 -6 -17 -18 3 -12 19 -30 22 -55 11 -20 -9 -46 -18 -57 -20 -11 -1 -36 -10
-56 -18 -23 -11 -49 -4 -74 19 -31 28 -45 30 -67 12 -22 -18 -31 -16 -40 7 -7
20 -38 31 -82 31 -39 0 -71 9 -71 20 0 11 -27 20 -59 20 -43 0 -57 8 -49 28 6
16 27 23 50 17 22 -5 37 -2 35 7 -14 48 50 106 78 72 16 -19 23 -23 16 -10z
m-571 -416 c26 -19 25 -20 -4 -11 -18 6 -37 1 -41 -12 -8 -25 -55 -3 -55 26 0
26 63 23 100 -3z m-960 -228 c0 -16 14 -30 32 -30 21 0 28 -11 20 -32 -7 -17
-12 -42 -12 -56 0 -14 -28 -24 -71 -24 -53 0 -67 7 -59 29 6 15 0 40 -12 56
-18 21 -16 27 10 27 18 0 38 14 45 30 6 17 19 30 29 30 10 0 18 -13 18 -30z
m239 -9 c58 -58 30 -130 -53 -134 -46 -2 -60 5 -52 25 6 16 -1 42 -14 58 -20
25 -19 30 8 30 18 0 38 14 45 30 15 38 19 38 66 -9z m208 9 c7 -16 27 -30 46
-30 27 0 30 -5 11 -24 -13 -13 -24 -38 -24 -55 0 -21 -19 -31 -60 -31 -41 0
-60 10 -60 31 0 17 -11 42 -24 55 -19 19 -16 24 11 24 19 0 39 14 46 30 6 17
18 30 27 30 9 0 21 -13 27 -30z m220 0 c7 -16 27 -30 46 -30 27 0 30 -5 11
-24 -13 -13 -24 -38 -24 -56 0 -54 -107 -40 -124 16 -20 70 66 159 91 94z
m220 0 c7 -16 27 -30 45 -30 27 0 28 -5 8 -30 -13 -16 -20 -41 -14 -56 7 -18
-10 -26 -58 -26 -40 0 -68 10 -68 24 0 14 -5 39 -12 56 -8 21 -1 32 20 32 18
0 32 14 32 30 0 17 8 30 18 30 10 0 23 -13 29 -30z m213 -414 c0 -7 18 -19 40
-26 93 -29 91 -151 -2 -181 l-41 -13 41 -29 c109 -76 1 -220 -160 -212 -127 7
-191 7 -286 0 -97 -6 -142 44 -87 99 30 30 44 31 105 9 88 -32 93 -29 190 137
44 76 89 143 100 150 41 25 18 50 -45 50 -152 0 -305 -84 -290 -159 8 -45 78
-51 108 -10 31 42 54 30 35 -18 -31 -82 -188 -52 -188 35 0 74 63 134 171 162
101 27 309 31 309 6z m-1887 -26 c40 -16 96 -30 124 -30 40 -1 46 -5 24 -19
-21 -13 -8 -22 48 -32 54 -10 81 -7 94 13 15 21 18 18 13 -12 -8 -43 -59 -50
-160 -21 -46 13 -57 6 -85 -47 l-32 -62 62 0 c36 0 56 -8 49 -20 -7 -11 -37
-20 -67 -20 -45 0 -62 -15 -89 -75 -97 -218 -432 -230 -450 -16 -4 41 0 90 8
108 8 18 13 40 11 49 -2 10 6 11 17 4 12 -7 36 -1 54 13 30 25 30 23 4 -20
-75 -126 -76 -130 -53 -172 69 -130 251 -117 353 27 58 81 55 106 -11 81 -29
-11 -57 -15 -63 -9 -19 18 65 70 100 62 30 -7 131 120 111 139 -69 70 -296 42
-312 -38 -12 -62 28 -83 86 -46 54 36 71 15 22 -26 -42 -35 -139 -18 -148 26
-27 143 119 215 290 143z m1280 -115 c-119 -160 -175 -368 -60 -223 26 32 47
46 47 32 0 -14 -22 -48 -50 -76 -27 -27 -50 -71 -50 -98 0 -70 -89 -168 -123
-134 -22 21 -20 41 6 115 l32 89 -75 0 c-109 0 -113 141 -7 196 71 36 135 -84
67 -126 -24 -15 -27 -50 -3 -50 9 0 54 77 100 170 64 131 92 170 124 170 40 0
40 -2 -8 -65z m1421 -7 c-10 -60 -6 -74 27 -82 39 -11 39 -11 -1 -76 -22 -35
-40 -75 -40 -87 0 -49 37 -19 82 67 26 50 59 90 73 90 32 0 32 -9 -6 -82 -47
-90 -27 -146 22 -63 49 82 81 86 39 5 -17 -33 -39 -60 -48 -60 -10 0 -64 -46
-120 -101 -111 -111 -186 -128 -198 -45 -7 46 52 87 159 113 29 7 58 28 65 46
10 24 7 28 -13 12 -35 -28 -501 -26 -519 2 -8 12 4 51 27 87 46 76 30 86 -37
23 -44 -43 -67 -132 -26 -107 11 7 20 4 20 -7 0 -27 -56 -45 -71 -22 -7 12
-25 12 -49 -1 -49 -26 -100 -5 -100 41 0 87 93 198 141 168 37 -23 18 -71 -41
-105 -64 -37 -82 -91 -26 -80 19 3 51 39 72 79 48 90 127 133 169 91 25 -25
24 -37 -3 -91 -37 -71 -40 -90 -12 -73 11 7 39 48 61 91 22 44 53 79 69 79 23
0 20 -15 -12 -70 -64 -107 -31 -132 34 -26 32 51 77 98 101 104 24 7 62 43 84
82 55 93 92 92 77 -2z m-2280 -68 c-7 -27 0 -40 20 -40 21 0 27 -12 18 -40
-44 -145 -28 -146 52 -1 19 33 44 61 56 61 15 0 15 -11 0 -40 -12 -22 -16 -40
-10 -40 7 0 -11 -31 -40 -68 -83 -109 -174 -51 -109 69 14 26 14 39 0 39 -11
0 -38 -35 -60 -78 -43 -84 -84 -111 -118 -77 -15 15 -30 14 -51 -3 -44 -37
-78 34 -46 97 89 175 212 134 142 -47 -10 -26 -8 -34 7 -25 30 18 85 131 85
173 0 37 17 60 46 60 10 0 14 -18 8 -40z m243 -55 c14 -27 5 -52 -40 -105
l-59 -70 8 74 c11 109 59 162 91 101z m83 -40 c-54 -101 -49 -128 11 -55 27
33 49 48 49 34 0 -14 -23 -49 -52 -77 -62 -63 -101 -39 -77 47 9 31 16 63 17
72 2 17 53 53 77 54 8 0 -3 -34 -25 -75z"/>
<path d="M2980 4910 c0 -73 9 -130 20 -130 11 0 20 57 20 130 0 73 -9 130 -20
130 -11 0 -20 -57 -20 -130z"/>
<path d="M2915 4105 c-106 -66 35 -148 155 -91 85 41 86 48 12 92 -72 42 -97
42 -167 -1z m113 -17 c41 -16 41 -40 -1 -56 -44 -17 -100 28 -63 51 32 20 26
20 64 5z"/>
<path d="M2415 4074 c-70 -57 -69 -65 8 -92 87 -30 99 -28 167 26 l59 48 -77
32 c-95 40 -90 40 -157 -14z m124 -22 c18 -23 15 -31 -18 -42 -56 -18 -90 6
-60 42 30 35 48 35 78 0z"/>
<path d="M3420 4086 l-70 -30 60 -48 c68 -54 80 -56 167 -26 78 27 78 39 4 94
-68 51 -68 51 -161 10z m117 -33 c39 -47 -18 -71 -77 -33 -27 18 -27 22 0 40
40 26 51 25 77 -7z"/>
<path d="M4261 3038 c-66 -90 -82 -198 -31 -198 19 0 30 19 30 50 0 36 11 50
39 50 46 0 86 64 77 124 -10 72 -51 63 -115 -26z"/>
<path d="M3603 1341 c-25 -44 -76 -126 -115 -184 -78 -117 -70 -136 58 -137
166 0 216 145 69 201 l-65 25 77 14 c110 21 151 98 74 139 -52 28 -48 31 -98
-58z"/>
<path d="M3220 1050 c0 -18 19 -30 49 -30 58 0 84 31 39 48 -53 20 -88 13 -88
-18z"/>
<path d="M2792 1151 c-37 -57 -42 -111 -11 -111 12 0 16 9 10 19 -7 10 6 29
28 41 23 12 41 39 41 61 0 53 -29 49 -68 -10z"/>
<path d="M2907 990 c-26 -49 -52 -150 -38 -150 21 0 73 124 66 156 -6 30 -10
29 -28 -6z"/>
<path d="M4333 1206 c-15 -15 -73 -141 -73 -158 0 -36 48 7 72 64 30 73 31
124 1 94z"/>
<path d="M4426 1175 c-53 -58 -81 -143 -43 -131 28 10 117 130 117 159 0 30
-32 18 -74 -28z"/>
<path d="M4422 935 c-27 -14 -53 -36 -57 -50 -14 -43 46 -27 95 25 51 54 37
63 -38 25z"/>
<path d="M2003 1154 c-42 -45 -62 -128 -25 -105 28 17 103 151 85 151 -9 0
-36 -21 -60 -46z"/>
<path d="M2495 3665 c-20 -4 -31 -16 -25 -25 5 -9 30 -12 55 -6 36 8 39 5 15
-12 -26 -18 -25 -21 5 -22 19 0 35 8 35 18 0 29 -48 55 -85 47z"/>
<path d="M2788 3656 c-24 -39 30 -67 64 -33 28 29 27 33 -10 42 -23 6 -47 2
-54 -9z"/>
<path d="M3670 3575 c-69 -24 -210 -117 -249 -163 -32 -39 -23 -40 159 -11
287 44 340 60 340 99 0 89 -114 124 -250 75z"/>
<path d="M1274 3270 c-30 -61 -54 -116 -54 -123 0 -7 67 -8 149 -2 206 16 249
-60 129 -228 -46 -64 -37 -98 18 -65 42 24 163 262 164 321 0 23 13 53 30 67
40 33 66 -30 33 -83 -21 -33 -17 -37 37 -37 72 0 73 -4 10 -130 -85 -173 -48
-214 49 -55 129 212 256 294 277 180 9 -45 -101 -155 -154 -155 -33 0 -42 -13
-42 -60 0 -50 8 -60 47 -60 73 0 173 143 173 247 0 40 32 73 72 73 18 0 6 -93
-26 -193 -18 -59 -26 -113 -18 -122 28 -27 133 112 129 171 -5 76 20 144 54
144 34 0 36 -19 9 -90 -18 -48 -14 -46 49 20 78 83 157 91 167 18 7 -50 -98
-148 -158 -148 -29 0 -38 -14 -38 -60 0 -166 178 -4 242 220 14 50 32 99 40
110 10 14 -117 21 -379 21 -396 1 -625 29 -839 100 -116 39 -109 43 -170 -81z"/>
<path d="M1426 3075 c-86 -94 -119 -235 -56 -235 19 0 30 19 30 50 0 37 11 50
40 50 65 0 108 154 49 174 -12 4 -40 -14 -63 -39z"/>
<path d="M1991 3057 c-29 -34 -48 -67 -41 -73 17 -17 119 66 126 103 11 52
-28 39 -85 -30z"/>
<path d="M2451 3057 c-29 -34 -48 -67 -41 -73 17 -17 119 66 126 103 11 52
-28 39 -85 -30z"/>
<path d="M3767 2640 c-120 -18 -277 -97 -277 -140 0 -89 280 -23 392 92 73 76
74 76 -115 48z"/>
</g>
</svg>
